<mxfile host="Electron" agent="Mozilla/5.0 (Macintosh; Intel Mac OS X 10_15_7) AppleWebKit/537.36 (KHTML, like Gecko) draw.io/28.0.4 Chrome/138.0.7204.97 Electron/37.2.1 Safari/537.36" version="28.0.4">
  <diagram name="Pagina-1" id="-vVdBNsxXLUTpmMMnHD9">
    <mxGraphModel dx="3679" dy="3914" grid="1" gridSize="10" guides="1" tooltips="1" connect="1" arrows="1" fold="1" page="1" pageScale="1" pageWidth="827" pageHeight="1169" math="0" shadow="0">
      <root>
        <mxCell id="0" />
        <mxCell id="1" parent="0" />
        <mxCell id="UTaYGyWFaG9Oa4qHJL6B-21" value="" style="group" connectable="0" vertex="1" parent="1">
          <mxGeometry x="-650" y="-890" width="500" height="410" as="geometry" />
        </mxCell>
        <mxCell id="kY3cHxhV4RNwmErgkKas-54" value="" style="shape=folder;fontStyle=1;spacingTop=10;tabWidth=40;tabHeight=14;tabPosition=left;html=1;whiteSpace=wrap;" parent="UTaYGyWFaG9Oa4qHJL6B-21" vertex="1">
          <mxGeometry width="380" height="410" as="geometry" />
        </mxCell>
        <mxCell id="kY3cHxhV4RNwmErgkKas-56" value="repository" style="shape=folder;fontStyle=1;spacingTop=10;tabWidth=40;tabHeight=14;tabPosition=left;html=1;whiteSpace=wrap;" parent="UTaYGyWFaG9Oa4qHJL6B-21" vertex="1">
          <mxGeometry x="20" y="50" width="70" height="50" as="geometry" />
        </mxCell>
        <mxCell id="kY3cHxhV4RNwmErgkKas-58" value="entity" style="shape=folder;fontStyle=1;spacingTop=10;tabWidth=40;tabHeight=14;tabPosition=left;html=1;whiteSpace=wrap;" parent="UTaYGyWFaG9Oa4qHJL6B-21" vertex="1">
          <mxGeometry x="20" y="320" width="70" height="70" as="geometry" />
        </mxCell>
        <mxCell id="kY3cHxhV4RNwmErgkKas-77" style="edgeStyle=orthogonalEdgeStyle;rounded=0;orthogonalLoop=1;jettySize=auto;html=1;endArrow=open;endFill=0;" parent="UTaYGyWFaG9Oa4qHJL6B-21" source="-sy-aIghMSAc_uhaI67l-38" target="kY3cHxhV4RNwmErgkKas-73" edge="1">
          <mxGeometry relative="1" as="geometry">
            <mxPoint x="240.00000000000023" y="138" as="sourcePoint" />
          </mxGeometry>
        </mxCell>
        <mxCell id="kY3cHxhV4RNwmErgkKas-65" value="Entity" style="swimlane;fontStyle=1;align=center;verticalAlign=top;childLayout=stackLayout;horizontal=1;startSize=26;horizontalStack=0;resizeParent=1;resizeParentMax=0;resizeLast=0;collapsible=1;marginBottom=0;whiteSpace=wrap;html=1;" parent="UTaYGyWFaG9Oa4qHJL6B-21" vertex="1">
          <mxGeometry x="130" y="320" width="220" height="70" as="geometry" />
        </mxCell>
        <mxCell id="kY3cHxhV4RNwmErgkKas-66" value="- field1: type&lt;div&gt;- f&lt;span style=&quot;background-color: transparent; color: light-dark(rgb(0, 0, 0), rgb(255, 255, 255));&quot;&gt;ield2&lt;/span&gt;&lt;span style=&quot;background-color: transparent; color: light-dark(rgb(0, 0, 0), rgb(255, 255, 255));&quot;&gt;: type&lt;/span&gt;&lt;/div&gt;" style="text;strokeColor=none;fillColor=none;align=left;verticalAlign=top;spacingLeft=4;spacingRight=4;overflow=hidden;rotatable=0;points=[[0,0.5],[1,0.5]];portConstraint=eastwest;whiteSpace=wrap;html=1;" parent="kY3cHxhV4RNwmErgkKas-65" vertex="1">
          <mxGeometry y="26" width="220" height="44" as="geometry" />
        </mxCell>
        <mxCell id="kY3cHxhV4RNwmErgkKas-73" value="Repository" style="swimlane;fontStyle=1;align=center;verticalAlign=top;childLayout=stackLayout;horizontal=1;startSize=26;horizontalStack=0;resizeParent=1;resizeParentMax=0;resizeLast=0;collapsible=1;marginBottom=0;whiteSpace=wrap;html=1;" parent="UTaYGyWFaG9Oa4qHJL6B-21" vertex="1">
          <mxGeometry x="127" y="130" width="220" height="88" as="geometry" />
        </mxCell>
        <mxCell id="kY3cHxhV4RNwmErgkKas-76" value="+ findAll(): Entity&lt;div&gt;+ ...&lt;/div&gt;&lt;div&gt;+ delete(id: Long): Void&lt;/div&gt;" style="text;strokeColor=none;fillColor=none;align=left;verticalAlign=top;spacingLeft=4;spacingRight=4;overflow=hidden;rotatable=0;points=[[0,0.5],[1,0.5]];portConstraint=eastwest;whiteSpace=wrap;html=1;" parent="kY3cHxhV4RNwmErgkKas-73" vertex="1">
          <mxGeometry y="26" width="220" height="62" as="geometry" />
        </mxCell>
        <mxCell id="UTaYGyWFaG9Oa4qHJL6B-60" value="" style="group" parent="UTaYGyWFaG9Oa4qHJL6B-21" vertex="1" connectable="0">
          <mxGeometry x="390" y="160" width="110" height="124" as="geometry" />
        </mxCell>
        <mxCell id="kY3cHxhV4RNwmErgkKas-57" value="Classes that access the database, generally moderately stable." style="strokeWidth=2;html=1;shape=mxgraph.flowchart.annotation_2;align=left;labelPosition=right;pointerEvents=1;whiteSpace=wrap;" parent="UTaYGyWFaG9Oa4qHJL6B-60" vertex="1">
          <mxGeometry y="24" width="110" height="100" as="geometry" />
        </mxCell>
        <mxCell id="UTaYGyWFaG9Oa4qHJL6B-17" value="Info" style="rounded=1;whiteSpace=wrap;html=1;arcSize=50;strokeColor=#314354;strokeWidth=1;fillColor=#647687;whiteSpace=wrap;align=left;verticalAlign=middle;spacingLeft=0;fontStyle=1;fontSize=14;spacing=10;fontColor=#ffffff;" parent="UTaYGyWFaG9Oa4qHJL6B-60" vertex="1">
          <mxGeometry x="60" width="45" height="20" as="geometry" />
        </mxCell>
        <mxCell id="-sy-aIghMSAc_uhaI67l-38" value="JPARepository" style="html=1;whiteSpace=wrap;" vertex="1" parent="UTaYGyWFaG9Oa4qHJL6B-21">
          <mxGeometry x="127" y="50" width="220" height="50" as="geometry" />
        </mxCell>
        <mxCell id="-sy-aIghMSAc_uhaI67l-40" value="" style="edgeStyle=orthogonalEdgeStyle;rounded=0;orthogonalLoop=1;jettySize=auto;html=1;entryX=0.503;entryY=0.006;entryDx=0;entryDy=0;entryPerimeter=0;endArrow=open;endFill=0;" edge="1" parent="UTaYGyWFaG9Oa4qHJL6B-21" source="-sy-aIghMSAc_uhaI67l-39" target="kY3cHxhV4RNwmErgkKas-65">
          <mxGeometry relative="1" as="geometry" />
        </mxCell>
        <mxCell id="-sy-aIghMSAc_uhaI67l-39" value="IEntity" style="html=1;whiteSpace=wrap;" vertex="1" parent="UTaYGyWFaG9Oa4qHJL6B-21">
          <mxGeometry x="130" y="250" width="220" height="50" as="geometry" />
        </mxCell>
        <mxCell id="-sy-aIghMSAc_uhaI67l-36" value="" style="edgeStyle=orthogonalEdgeStyle;rounded=0;orthogonalLoop=1;jettySize=auto;html=1;endArrow=open;endFill=0;" edge="1" parent="1" source="L9ycZ2wKz4MPZfXjeffK-14" target="L9ycZ2wKz4MPZfXjeffK-62">
          <mxGeometry relative="1" as="geometry">
            <Array as="points">
              <mxPoint x="-460" y="-1550" />
              <mxPoint x="-460" y="-1550" />
            </Array>
          </mxGeometry>
        </mxCell>
        <mxCell id="L9ycZ2wKz4MPZfXjeffK-14" value="" style="shape=folder;fontStyle=1;spacingTop=10;tabWidth=40;tabHeight=14;tabPosition=left;html=1;whiteSpace=wrap;" parent="1" vertex="1">
          <mxGeometry x="-650" y="-2280" width="390" height="710" as="geometry" />
        </mxCell>
        <mxCell id="L9ycZ2wKz4MPZfXjeffK-48" value="" style="edgeStyle=orthogonalEdgeStyle;rounded=0;orthogonalLoop=1;jettySize=auto;html=1;endArrow=open;endFill=0;" parent="1" source="L9ycZ2wKz4MPZfXjeffK-47" target="L9ycZ2wKz4MPZfXjeffK-46" edge="1">
          <mxGeometry relative="1" as="geometry">
            <Array as="points" />
            <mxPoint x="-460" y="-2050" as="targetPoint" />
          </mxGeometry>
        </mxCell>
        <mxCell id="L9ycZ2wKz4MPZfXjeffK-47" value="" style="verticalLabelPosition=bottom;verticalAlign=top;html=1;shape=mxgraph.basic.rect;fillColor2=none;strokeWidth=1;size=20;indent=5;fillColor=none;dashed=1;" parent="1" vertex="1">
          <mxGeometry x="-630" y="-2240" width="330" height="150" as="geometry" />
        </mxCell>
        <mxCell id="L9ycZ2wKz4MPZfXjeffK-46" value="" style="verticalLabelPosition=bottom;verticalAlign=top;html=1;shape=mxgraph.basic.rect;fillColor2=none;strokeWidth=1;size=20;indent=5;fillColor=none;dashed=1;" parent="1" vertex="1">
          <mxGeometry x="-630" y="-2050" width="330" height="460" as="geometry" />
        </mxCell>
        <mxCell id="L9ycZ2wKz4MPZfXjeffK-53" value="" style="edgeStyle=orthogonalEdgeStyle;rounded=0;orthogonalLoop=1;jettySize=auto;html=1;entryX=0.485;entryY=0.003;entryDx=0;entryDy=0;entryPerimeter=0;endArrow=open;endFill=0;" parent="1" edge="1">
          <mxGeometry relative="1" as="geometry">
            <mxPoint x="-403" y="-1980" as="sourcePoint" />
            <mxPoint x="-404.2500000000002" y="-1959.706" as="targetPoint" />
          </mxGeometry>
        </mxCell>
        <mxCell id="L9ycZ2wKz4MPZfXjeffK-15" value="ICommand" style="html=1;whiteSpace=wrap;" parent="1" vertex="1">
          <mxGeometry x="-525" y="-2030" width="200" height="50" as="geometry" />
        </mxCell>
        <mxCell id="L9ycZ2wKz4MPZfXjeffK-16" value="RestController" style="swimlane;fontStyle=0;childLayout=stackLayout;horizontal=1;startSize=26;fillColor=none;horizontalStack=0;resizeParent=1;resizeParentMax=0;resizeLast=0;collapsible=1;marginBottom=0;whiteSpace=wrap;html=1;" parent="1" vertex="1">
          <mxGeometry x="-530" y="-2218" width="160" height="52" as="geometry">
            <mxRectangle x="860" y="-490" width="100" height="30" as="alternateBounds" />
          </mxGeometry>
        </mxCell>
        <mxCell id="L9ycZ2wKz4MPZfXjeffK-17" value="+ v1/endpoint: Resource" style="text;strokeColor=none;fillColor=none;align=left;verticalAlign=top;spacingLeft=4;spacingRight=4;overflow=hidden;rotatable=0;points=[[0,0.5],[1,0.5]];portConstraint=eastwest;whiteSpace=wrap;html=1;" parent="L9ycZ2wKz4MPZfXjeffK-16" vertex="1">
          <mxGeometry y="26" width="160" height="26" as="geometry" />
        </mxCell>
        <mxCell id="L9ycZ2wKz4MPZfXjeffK-20" value="api.v1" style="shape=folder;fontStyle=1;spacingTop=10;tabWidth=40;tabHeight=14;tabPosition=left;html=1;whiteSpace=wrap;" parent="1" vertex="1">
          <mxGeometry x="-622" y="-2216" width="70" height="50" as="geometry" />
        </mxCell>
        <mxCell id="L9ycZ2wKz4MPZfXjeffK-22" value="api.v2" style="shape=folder;fontStyle=1;spacingTop=10;tabWidth=40;tabHeight=14;tabPosition=left;html=1;whiteSpace=wrap;" parent="1" vertex="1">
          <mxGeometry x="-622" y="-2150" width="70" height="50" as="geometry" />
        </mxCell>
        <mxCell id="L9ycZ2wKz4MPZfXjeffK-23" value="command" style="shape=folder;fontStyle=1;spacingTop=10;tabWidth=40;tabHeight=14;tabPosition=left;html=1;whiteSpace=wrap;" parent="1" vertex="1">
          <mxGeometry x="-622" y="-2030" width="70" height="50" as="geometry" />
        </mxCell>
        <mxCell id="L9ycZ2wKz4MPZfXjeffK-24" value="RestController" style="swimlane;fontStyle=0;childLayout=stackLayout;horizontal=1;startSize=26;fillColor=none;horizontalStack=0;resizeParent=1;resizeParentMax=0;resizeLast=0;collapsible=1;marginBottom=0;whiteSpace=wrap;html=1;" parent="1" vertex="1">
          <mxGeometry x="-530" y="-2152" width="160" height="52" as="geometry">
            <mxRectangle x="860" y="-490" width="100" height="30" as="alternateBounds" />
          </mxGeometry>
        </mxCell>
        <mxCell id="L9ycZ2wKz4MPZfXjeffK-25" value="+ v2/endpoint: Resource" style="text;strokeColor=none;fillColor=none;align=left;verticalAlign=top;spacingLeft=4;spacingRight=4;overflow=hidden;rotatable=0;points=[[0,0.5],[1,0.5]];portConstraint=eastwest;whiteSpace=wrap;html=1;" parent="L9ycZ2wKz4MPZfXjeffK-24" vertex="1">
          <mxGeometry y="26" width="160" height="26" as="geometry" />
        </mxCell>
        <mxCell id="L9ycZ2wKz4MPZfXjeffK-28" value="resource" style="shape=folder;fontStyle=1;spacingTop=10;tabWidth=40;tabHeight=14;tabPosition=left;html=1;whiteSpace=wrap;" parent="1" vertex="1">
          <mxGeometry x="-622" y="-1850" width="70" height="70" as="geometry" />
        </mxCell>
        <mxCell id="L9ycZ2wKz4MPZfXjeffK-29" value="assembler" style="shape=folder;fontStyle=1;spacingTop=10;tabWidth=40;tabHeight=14;tabPosition=left;html=1;whiteSpace=wrap;" parent="1" vertex="1">
          <mxGeometry x="-622" y="-1750" width="70" height="50" as="geometry" />
        </mxCell>
        <mxCell id="L9ycZ2wKz4MPZfXjeffK-35" value="" style="edgeStyle=orthogonalEdgeStyle;rounded=0;orthogonalLoop=1;jettySize=auto;html=1;endArrow=open;endFill=0;" parent="1" source="L9ycZ2wKz4MPZfXjeffK-30" edge="1">
          <mxGeometry relative="1" as="geometry">
            <mxPoint x="-422" y="-1660" as="targetPoint" />
            <Array as="points">
              <mxPoint x="-422" y="-1661" />
            </Array>
          </mxGeometry>
        </mxCell>
        <mxCell id="L9ycZ2wKz4MPZfXjeffK-30" value="IAssembler" style="html=1;whiteSpace=wrap;" parent="1" vertex="1">
          <mxGeometry x="-522" y="-1750" width="200" height="50" as="geometry" />
        </mxCell>
        <mxCell id="L9ycZ2wKz4MPZfXjeffK-31" value="ResourceAssembler" style="swimlane;fontStyle=1;align=center;verticalAlign=top;childLayout=stackLayout;horizontal=1;startSize=26;horizontalStack=0;resizeParent=1;resizeParentMax=0;resizeLast=0;collapsible=1;marginBottom=0;whiteSpace=wrap;html=1;" parent="1" vertex="1">
          <mxGeometry x="-525" y="-1660" width="210" height="52" as="geometry" />
        </mxCell>
        <mxCell id="L9ycZ2wKz4MPZfXjeffK-34" value="+ convert(outputModel): Resource" style="text;strokeColor=none;fillColor=none;align=left;verticalAlign=top;spacingLeft=4;spacingRight=4;overflow=hidden;rotatable=0;points=[[0,0.5],[1,0.5]];portConstraint=eastwest;whiteSpace=wrap;html=1;" parent="L9ycZ2wKz4MPZfXjeffK-31" vertex="1">
          <mxGeometry y="26" width="210" height="26" as="geometry" />
        </mxCell>
        <mxCell id="L9ycZ2wKz4MPZfXjeffK-41" value="Resource" style="swimlane;fontStyle=1;align=center;verticalAlign=top;childLayout=stackLayout;horizontal=1;startSize=26;horizontalStack=0;resizeParent=1;resizeParentMax=0;resizeLast=0;collapsible=1;marginBottom=0;whiteSpace=wrap;html=1;" parent="1" vertex="1">
          <mxGeometry x="-523" y="-1850" width="200" height="70" as="geometry" />
        </mxCell>
        <mxCell id="L9ycZ2wKz4MPZfXjeffK-42" value="- field1: type&lt;div&gt;- field2: type&lt;/div&gt;" style="text;strokeColor=none;fillColor=none;align=left;verticalAlign=top;spacingLeft=4;spacingRight=4;overflow=hidden;rotatable=0;points=[[0,0.5],[1,0.5]];portConstraint=eastwest;whiteSpace=wrap;html=1;" parent="L9ycZ2wKz4MPZfXjeffK-41" vertex="1">
          <mxGeometry y="26" width="200" height="44" as="geometry" />
        </mxCell>
        <mxCell id="L9ycZ2wKz4MPZfXjeffK-51" value="Command" style="swimlane;fontStyle=1;align=center;verticalAlign=top;childLayout=stackLayout;horizontal=1;startSize=26;horizontalStack=0;resizeParent=1;resizeParentMax=0;resizeLast=0;collapsible=1;marginBottom=0;whiteSpace=wrap;html=1;" parent="1" vertex="1">
          <mxGeometry x="-524" y="-1960" width="200" height="98" as="geometry" />
        </mxCell>
        <mxCell id="L9ycZ2wKz4MPZfXjeffK-52" value="- inputField1: type&lt;div&gt;-&amp;nbsp;&lt;span style=&quot;background-color: transparent; color: light-dark(rgb(0, 0, 0), rgb(255, 255, 255));&quot;&gt;inputField2&lt;/span&gt;&lt;span style=&quot;background-color: transparent; color: light-dark(rgb(0, 0, 0), rgb(255, 255, 255));&quot;&gt;: type&lt;/span&gt;&lt;/div&gt;" style="text;strokeColor=none;fillColor=none;align=left;verticalAlign=top;spacingLeft=4;spacingRight=4;overflow=hidden;rotatable=0;points=[[0,0.5],[1,0.5]];portConstraint=eastwest;whiteSpace=wrap;html=1;" parent="L9ycZ2wKz4MPZfXjeffK-51" vertex="1">
          <mxGeometry y="26" width="200" height="34" as="geometry" />
        </mxCell>
        <mxCell id="L9ycZ2wKz4MPZfXjeffK-61" value="" style="line;strokeWidth=1;fillColor=none;align=left;verticalAlign=middle;spacingTop=-1;spacingLeft=3;spacingRight=3;rotatable=0;labelPosition=right;points=[];portConstraint=eastwest;strokeColor=inherit;" parent="L9ycZ2wKz4MPZfXjeffK-51" vertex="1">
          <mxGeometry y="60" width="200" height="8" as="geometry" />
        </mxCell>
        <mxCell id="L9ycZ2wKz4MPZfXjeffK-60" value="+ execute(): DTO" style="text;strokeColor=none;fillColor=none;align=left;verticalAlign=top;spacingLeft=4;spacingRight=4;overflow=hidden;rotatable=0;points=[[0,0.5],[1,0.5]];portConstraint=eastwest;whiteSpace=wrap;html=1;" parent="L9ycZ2wKz4MPZfXjeffK-51" vertex="1">
          <mxGeometry y="68" width="200" height="30" as="geometry" />
        </mxCell>
        <mxCell id="UTaYGyWFaG9Oa4qHJL6B-58" value="" style="group" parent="1" vertex="1" connectable="0">
          <mxGeometry x="-260" y="-1976" width="120" height="130" as="geometry" />
        </mxCell>
        <mxCell id="L9ycZ2wKz4MPZfXjeffK-54" value="Classes designed for continuous refinement, and therefore inherently unstable.&amp;nbsp;" style="strokeWidth=2;html=1;shape=mxgraph.flowchart.annotation_2;align=left;labelPosition=right;pointerEvents=1;whiteSpace=wrap;" parent="UTaYGyWFaG9Oa4qHJL6B-58" vertex="1">
          <mxGeometry y="30" width="120" height="100" as="geometry" />
        </mxCell>
        <mxCell id="UTaYGyWFaG9Oa4qHJL6B-14" value="Info" style="rounded=1;whiteSpace=wrap;html=1;arcSize=50;strokeColor=#314354;strokeWidth=1;fillColor=#647687;whiteSpace=wrap;align=left;verticalAlign=middle;spacingLeft=0;fontStyle=1;fontSize=14;spacing=10;fontColor=#ffffff;container=0;" parent="UTaYGyWFaG9Oa4qHJL6B-58" vertex="1">
          <mxGeometry x="71" width="45" height="20" as="geometry" />
        </mxCell>
        <mxCell id="-sy-aIghMSAc_uhaI67l-37" value="" style="edgeStyle=orthogonalEdgeStyle;rounded=0;orthogonalLoop=1;jettySize=auto;html=1;endArrow=open;endFill=0;" edge="1" parent="1" source="L9ycZ2wKz4MPZfXjeffK-62" target="kY3cHxhV4RNwmErgkKas-54">
          <mxGeometry relative="1" as="geometry" />
        </mxCell>
        <mxCell id="L9ycZ2wKz4MPZfXjeffK-62" value="" style="shape=folder;fontStyle=1;spacingTop=10;tabWidth=40;tabHeight=14;tabPosition=left;html=1;whiteSpace=wrap;" parent="1" vertex="1">
          <mxGeometry x="-650" y="-1490" width="380" height="550" as="geometry" />
        </mxCell>
        <mxCell id="L9ycZ2wKz4MPZfXjeffK-71" value="mapper" style="shape=folder;fontStyle=1;spacingTop=10;tabWidth=40;tabHeight=14;tabPosition=left;html=1;whiteSpace=wrap;" parent="1" vertex="1">
          <mxGeometry x="-630" y="-1245" width="70" height="50" as="geometry" />
        </mxCell>
        <mxCell id="L9ycZ2wKz4MPZfXjeffK-72" value="service" style="shape=folder;fontStyle=1;spacingTop=10;tabWidth=40;tabHeight=14;tabPosition=left;html=1;whiteSpace=wrap;" parent="1" vertex="1">
          <mxGeometry x="-630" y="-1440" width="70" height="50" as="geometry" />
        </mxCell>
        <mxCell id="kY3cHxhV4RNwmErgkKas-1" value="" style="edgeStyle=orthogonalEdgeStyle;rounded=0;orthogonalLoop=1;jettySize=auto;html=1;entryX=0.5;entryY=0;entryDx=0;entryDy=0;endArrow=open;endFill=0;" parent="1" source="L9ycZ2wKz4MPZfXjeffK-92" target="L9ycZ2wKz4MPZfXjeffK-93" edge="1">
          <mxGeometry relative="1" as="geometry" />
        </mxCell>
        <mxCell id="L9ycZ2wKz4MPZfXjeffK-92" value="Facade" style="html=1;whiteSpace=wrap;" parent="1" vertex="1">
          <mxGeometry x="-520" y="-1440" width="220" height="50" as="geometry" />
        </mxCell>
        <mxCell id="L9ycZ2wKz4MPZfXjeffK-93" value="UseCaseService" style="swimlane;fontStyle=1;align=center;verticalAlign=top;childLayout=stackLayout;horizontal=1;startSize=26;horizontalStack=0;resizeParent=1;resizeParentMax=0;resizeLast=0;collapsible=1;marginBottom=0;whiteSpace=wrap;html=1;" parent="1" vertex="1">
          <mxGeometry x="-520" y="-1360" width="220" height="88" as="geometry" />
        </mxCell>
        <mxCell id="L9ycZ2wKz4MPZfXjeffK-94" value="- daoFactory?: DAOFactory" style="text;strokeColor=none;fillColor=none;align=left;verticalAlign=top;spacingLeft=4;spacingRight=4;overflow=hidden;rotatable=0;points=[[0,0.5],[1,0.5]];portConstraint=eastwest;whiteSpace=wrap;html=1;" parent="L9ycZ2wKz4MPZfXjeffK-93" vertex="1">
          <mxGeometry y="26" width="220" height="24" as="geometry" />
        </mxCell>
        <mxCell id="L9ycZ2wKz4MPZfXjeffK-95" value="" style="line;strokeWidth=1;fillColor=none;align=left;verticalAlign=middle;spacingTop=-1;spacingLeft=3;spacingRight=3;rotatable=0;labelPosition=right;points=[];portConstraint=eastwest;strokeColor=inherit;" parent="L9ycZ2wKz4MPZfXjeffK-93" vertex="1">
          <mxGeometry y="50" width="220" height="8" as="geometry" />
        </mxCell>
        <mxCell id="L9ycZ2wKz4MPZfXjeffK-96" value="+ operation(inputModel: Model): Model" style="text;strokeColor=none;fillColor=none;align=left;verticalAlign=top;spacingLeft=4;spacingRight=4;overflow=hidden;rotatable=0;points=[[0,0.5],[1,0.5]];portConstraint=eastwest;whiteSpace=wrap;html=1;" parent="L9ycZ2wKz4MPZfXjeffK-93" vertex="1">
          <mxGeometry y="58" width="220" height="30" as="geometry" />
        </mxCell>
        <mxCell id="kY3cHxhV4RNwmErgkKas-15" value="" style="edgeStyle=orthogonalEdgeStyle;rounded=0;orthogonalLoop=1;jettySize=auto;html=1;entryX=0.5;entryY=0;entryDx=0;entryDy=0;endArrow=open;endFill=0;" parent="1" source="kY3cHxhV4RNwmErgkKas-10" target="kY3cHxhV4RNwmErgkKas-11" edge="1">
          <mxGeometry relative="1" as="geometry" />
        </mxCell>
        <mxCell id="kY3cHxhV4RNwmErgkKas-10" value="IMapper" style="html=1;whiteSpace=wrap;" parent="1" vertex="1">
          <mxGeometry x="-520" y="-1245" width="220" height="50" as="geometry" />
        </mxCell>
        <mxCell id="kY3cHxhV4RNwmErgkKas-11" value="Mapper" style="swimlane;fontStyle=1;align=center;verticalAlign=top;childLayout=stackLayout;horizontal=1;startSize=26;horizontalStack=0;resizeParent=1;resizeParentMax=0;resizeLast=0;collapsible=1;marginBottom=0;whiteSpace=wrap;html=1;" parent="1" vertex="1">
          <mxGeometry x="-520" y="-1155" width="220" height="70" as="geometry" />
        </mxCell>
        <mxCell id="-sy-aIghMSAc_uhaI67l-32" value="+ toEntity(dto: DTO): Entity&lt;div&gt;+ toDTO(entity: Entity): DTO&lt;/div&gt;" style="text;strokeColor=none;fillColor=none;align=left;verticalAlign=top;spacingLeft=4;spacingRight=4;overflow=hidden;rotatable=0;points=[[0,0.5],[1,0.5]];portConstraint=eastwest;whiteSpace=wrap;html=1;" vertex="1" parent="kY3cHxhV4RNwmErgkKas-11">
          <mxGeometry y="26" width="220" height="44" as="geometry" />
        </mxCell>
        <mxCell id="UTaYGyWFaG9Oa4qHJL6B-59" value="" style="group" parent="1" vertex="1" connectable="0">
          <mxGeometry x="-270" y="-1350" width="120" height="125" as="geometry" />
        </mxCell>
        <mxCell id="L9ycZ2wKz4MPZfXjeffK-87" value="Classes implementing use cases, each dedicated to a single &lt;br/&gt;component (for a microservice, typically a component within the same &lt;br/&gt;domain). These classes tend to be moderately unstable." style="strokeWidth=2;html=1;shape=mxgraph.flowchart.annotation_2;align=left;labelPosition=right;pointerEvents=1;" parent="UTaYGyWFaG9Oa4qHJL6B-59" vertex="1">
          <mxGeometry y="25" width="120" height="100" as="geometry" />
        </mxCell>
        <mxCell id="UTaYGyWFaG9Oa4qHJL6B-19" value="Info" style="rounded=1;whiteSpace=wrap;html=1;arcSize=50;strokeColor=#314354;strokeWidth=1;fillColor=#647687;whiteSpace=wrap;align=left;verticalAlign=middle;spacingLeft=0;fontStyle=1;fontSize=14;spacing=10;fontColor=#ffffff;" parent="UTaYGyWFaG9Oa4qHJL6B-59" vertex="1">
          <mxGeometry x="70" width="45" height="20" as="geometry" />
        </mxCell>
        <mxCell id="-sy-aIghMSAc_uhaI67l-33" value="dto" style="shape=folder;fontStyle=1;spacingTop=10;tabWidth=40;tabHeight=14;tabPosition=left;html=1;whiteSpace=wrap;" vertex="1" parent="1">
          <mxGeometry x="-630" y="-1060" width="70" height="70" as="geometry" />
        </mxCell>
        <mxCell id="-sy-aIghMSAc_uhaI67l-34" value="DTO" style="swimlane;fontStyle=1;align=center;verticalAlign=top;childLayout=stackLayout;horizontal=1;startSize=26;horizontalStack=0;resizeParent=1;resizeParentMax=0;resizeLast=0;collapsible=1;marginBottom=0;whiteSpace=wrap;html=1;" vertex="1" parent="1">
          <mxGeometry x="-520" y="-1060" width="220" height="70" as="geometry" />
        </mxCell>
        <mxCell id="-sy-aIghMSAc_uhaI67l-35" value="- field1: type&lt;div&gt;- field2: type&lt;/div&gt;" style="text;strokeColor=none;fillColor=none;align=left;verticalAlign=top;spacingLeft=4;spacingRight=4;overflow=hidden;rotatable=0;points=[[0,0.5],[1,0.5]];portConstraint=eastwest;whiteSpace=wrap;html=1;" vertex="1" parent="-sy-aIghMSAc_uhaI67l-34">
          <mxGeometry y="26" width="220" height="44" as="geometry" />
        </mxCell>
      </root>
    </mxGraphModel>
  </diagram>
</mxfile>
